# The Great Editor v0.0.1
mtllib floor_1.mtl
o floor_1
v -3.537294625115107 0.7197596083943198 0
v -3.537294625115107 0.7197596083943198 -0.1
v -3.520709542965153 -14.310628604662433 0
v -3.520709542965153 -14.310628604662433 -0.1
v 18.96750836039354 -14.813870983376145 0
v 18.96750836039354 -14.813870983376145 -0.1
v 18.8745698638104 0.7997576697523385 0
v 18.8745698638104 0.7997576697523385 -0.1
vt -3.537294625115107 0.7197596083943198 0
vt -3.520709542965153 -14.310628604662433 0
vt 18.96750836039354 -14.813870983376145 0
vt 18.8745698638104 0.7997576697523385 0
vn 0 0 1
vn 0 0 -1
usemtl floor_1
s off
f 1/1/1 3/2/1 7/4/1
f 8/4/2 4/2/2 2/1/2
f 7/4/1 3/2/1 5/3/1
f 6/3/2 4/2/2 8/4/2
